<mxfile host="app.diagrams.net" agent="Mozilla/5.0 (Windows NT 10.0; Win64; x64) AppleWebKit/537.36 (KHTML, like Gecko) Chrome/127.0.0.0 Safari/537.36" version="24.7.7" pages="8">
  <diagram id="VUIq4RujPs_riR0w7qVQ" name="if/else">
    <mxGraphModel grid="1" page="1" gridSize="10" guides="1" tooltips="1" connect="1" arrows="1" fold="1" pageScale="1" pageWidth="4681" pageHeight="3300" math="0" shadow="0">
      <root>
        <mxCell id="0" />
        <mxCell id="1" parent="0" />
      </root>
    </mxGraphModel>
  </diagram>
  <diagram id="_wco_bg104Gyy4SY1dlI" name="Coding Exercise 26: if/else">
    <mxGraphModel grid="1" page="1" gridSize="10" guides="1" tooltips="1" connect="1" arrows="1" fold="1" pageScale="1" pageWidth="4681" pageHeight="3300" math="0" shadow="0">
      <root>
        <mxCell id="0" />
        <mxCell id="1" parent="0" />
        <UserObject label="https://codepen.io/makdag5/pen/wvObPMg" link="https://codepen.io/makdag5/pen/wvObPMg" id="X3ruIgb_bgLI243bmERT-1">
          <mxCell style="text;whiteSpace=wrap;fontSize=21;fontStyle=1" vertex="1" parent="1">
            <mxGeometry x="490" y="320" width="260" height="40" as="geometry" />
          </mxCell>
        </UserObject>
        <UserObject label="&lt;b&gt;&lt;font style=&quot;font-size: 24px;&quot;&gt;https://codepen.io/makdag5/pen/NWMjYzy&lt;/font&gt;&lt;/b&gt;" link="https://codepen.io/makdag5/pen/NWMjYzy?editors=0110" id="B_ZQCt5wzaKMYzIvjD7P-1">
          <mxCell style="text;whiteSpace=wrap;html=1;" vertex="1" parent="1">
            <mxGeometry x="490" y="220" width="850" height="40" as="geometry" />
          </mxCell>
        </UserObject>
      </root>
    </mxGraphModel>
  </diagram>
  <diagram id="uyTX-k2QwoYJjJjekoQz" name="Type Conversion and Coercion">
    <mxGraphModel grid="1" page="1" gridSize="10" guides="1" tooltips="1" connect="1" arrows="1" fold="1" pageScale="1" pageWidth="4681" pageHeight="3300" math="0" shadow="0">
      <root>
        <mxCell id="0" />
        <mxCell id="1" parent="0" />
      </root>
    </mxGraphModel>
  </diagram>
  <diagram id="eYYtiZdNgB79-HsODonS" name="Truthy and Falsy Values">
    <mxGraphModel grid="1" page="1" gridSize="10" guides="1" tooltips="1" connect="1" arrows="1" fold="1" pageScale="1" pageWidth="4681" pageHeight="3300" math="0" shadow="0">
      <root>
        <mxCell id="0" />
        <mxCell id="1" parent="0" />
        <mxCell id="fdbBiwcUNoBqWgx8drer-1" value="" style="shape=image;verticalLabelPosition=bottom;labelBackgroundColor=default;verticalAlign=top;aspect=fixed;imageAspect=0;image=data:image/png,iVBORw0KGgoAAAANSUhEUgAAAhIAAAGYCAYAAAAX/gucAAAAAXNSR0IArs4c6QAAAARnQU1BAACxjwv8YQUAAAAJcEhZcwAADsMAAA7DAcdvqGQAACwiSURBVHhe7d0JfFTV2cfxJ4EQiOwGMCyRRVYXEEEWEQRFUcSlKlSlVhHrglWkiG3xVWtxt1VbK7VabK22Lq2tWgWxggKyLyKCAYwiEEAIS1giSSB557lzBiZhljuHSbiT+X39jHPOnUkIGebe/5w1pXfjcWUCAABgIdXcAwAAxIwgAQAArBEkAACANYIEAACwRpAAAADWCBIAAMAaQQIAAFgjSAAAAGsECQAAYI0gAQAArBEkAACANYIEAACwRpAAAADWCBIAAMAaQQIAAFgjSAAAAGsECQAAYI0gAQAArBEkAACANYIEAACwRpAAAADWCBIAAMAaQQIAAFgjSAAAAGsECQAAYI0gAQAArBEkAACANYIEAACwRpAAAADWCBIAAMAaQQIAAFgjSAAAAGsECQAAYI0gAQAArBEkAACANYIEAACwRpAAAADWCBIAAMAaQQIAAFgjSAAAAGsECQAAYI0gAQAArBEkAACANYIEAACwRpAAAADWCBIAAMAaQQIAAFgjSAAAAGsECQAAYI0gAQAArBEkAACANYIEAACwRpAAAADWCBIAAMAaQQIAAFgjSAAAAGsECQAAYI0gAQAArBEkAACANYIEAACwRpAAAADWCBIAAMAaQQIAAFgjSAAAAGsECQAAYI0gAQAArBEkAACANYIEAACwRpAAAADWCBIAAMAaQQIAAFgjSAAAAGsECcCDsts1MSUA8DaCBOABGhwGX3G6/PTBYfKHd26Tps0bmEcAwNtSejceV2bKAKqIBoeO3VpKp66+W7dWzn1G3XTzqMidVzwvCz9eY2oA4F0ECaCKaYtDxeBQ0V3DX5D5H+WYGgB4F10bQBUrKToQMUSoGjVSTAkAvI0gAVSxYl+QiCYllbcmgMTA2QqoYsVFJaYUXmoqLRLVxa3/N1QG/+B0ObF9U3MEqF4IEkAVKy4+aErh1ajBW7Mq6biV68edF7XLycbmDTvkwRdGymvz75EZ6x+W59+/XX72+A/kkh/1ks6nt5KaaTXMM4HExGBLoIr94unhzkUkkntv/Jt89J/PTA2VTYNE97PaOeWpbyyRf/zhY1n7xSanfrTadcmSV2aPN7XQ9M/6auUmWbMiT77yldf4brt3FppHAW8jSCAhNclqINs2F5haYtFPo1feeJaphXbfT16RD/+1zNRQ2YKDRMDKJevlb8/MkE/eW2GO2Ju29kFp0Pg4U3Mnb912Ey58IcMJF3myZcNO8yjgHbSfIiG0bJMpgy7tKrfce5H85rXRcul1vc0jiad4f/QxEnRtHHsnn5Etj758vXTr09Ycsbdi4TpTcq9F6+NlwNBT5aafXyCPvXKD/Puze80jgLdwtoInaXPwhSN6yNiHLnU+Lb700Vh5aMp18uO7zpW+gzubZyWmEhdjJFJSGGzpFQdKor9e0axYFHuQqGjx7K9MCfAWggQ85Z7fXCl//vBO+cuMu+S+566WEbf0d5qc6zaoY56R+NxM/6RFwjviESQ+t2iRqGj92q2mBHgLZyt4ymXX95Eu3bOr9Uj2kuLoQSKVBak848CBOLRI+IJEaenRDUf7liABjyJIIGmdeU4H+e+XDzjjLlq1zTRHK5+bMRKptEh4hpuuqGgOHii1GicRjCABr+JshaR01gVd5Jl/3SzHN63njLt4Y9EvZPK7Y+Tia86UtFo1zbMqB+tIJJZ4tEioow4SXxEk4E2crZB0Bg47TZ78+42mdli3vm1l4u9HyMd5j8rE342QHv3bm0fiS/faiIbBlt5xoKTUlI7O0QSJ7/cVMfUTnkWQQFI5/8ru8vBffmxqoeny1Bdfe6b8/t+3yOsLfy6j77nAPBIfxS7GSLBpl3ccjMNgS3U0MzfW0a0BDyNIIGlot8Wvnr/W1NzRrbxffOwDU4sPxkgklnh1bezM3ytf52wxtdisX7vNlADv4WyFpHD5DX2dbotYTHtjiTz1i/+YWvy4m7XBW9Mr4jHYMsC2e4OBlvAyzlao9kbcfLZMePIKU3Nn7odfyq9u/bupxZebCxNdG94Rj3UkAuyDxHemBHgPe23AU+Zt/40pRfbnx6e76nIYecdAGXP/xabmzheLv5WbLvidqZXXtHkDZ9XN+o0ypH7DDGf/BN1cac+uQtld8L2zaNCGr/PNs0PTQZ06QySS5x+aKn/57f9M7bCs7MaS1aqRqYks/TTXlBCJro6qXUq6GFiR715vxfsPOHXd1v2Unq2P2GsjoF+zu53pm/GQfVJTeX3BPabm3sizn5TcVZtNDfAWggQ8JZ5BYtT4wXLTL4aYmjvrc7fJyH5PlGs1OHvIydK930lOAOjUtaU5Gt7Cj9c4G27NnrZSCnbsM0cP0z0cXpx+p6mF9sIj0+Stv8yT1h2a+m7N5JQeJzoXOg0SwTav3yGzpq70/T4+8IWZ781RVHTnpEvlh7f2N7XY3HzRs05Q1N9vgS80uumaiuTdlfdL5gn1Tc2ds0+YENeWESCeCBLwlHgFCV1kSteHiMWu7fucELF96x6nPv7xHzgbhTXKrOvUY/Vd3i558Na/H9Fq0OG0FvLXmeNMLbTZvnBw0slZRwSHcPRnHv/DFyVn+UZzBMEuHH6G3Df5GlOzt//7Ytm98/tDwWK3tkSZ8hxfcHTTQvTQSz+WQZecZmrRaQvX8J6PmBrgPYyRQLWjG33FGiJ0+eLbhv3hUIhQ36z+zjpEqGYtGjpN6m06NjNH/NysI3H2hSe7DhFKF9Z6acZdUrd+bXMkvvTvoEuX646UlfVnVKZo3U1u1a5T61D3lrZQ9b/oFGc20NW3DTDPiG7Fwm9MyZ1v1zA+At5GkEC1opt+6UZfsdIQocEh2Mx3Ppf8LbtNzd6kKddJZrPDTdnxnAVQ0Z2+EBUP2o1y1yOXyauf3u20Ev197gRnM7V/LvmlfPjNQ07zvK6vod00VaGhL9BpmNGfq23nE5zfZyz7sWzZ6J3FnL5Y9K0pucOMDXgdQQLVQq30mk7TtW76FasJ106R5fOP/JS4Y9semT8jx9Tste10Qrmf62j72CPRT8eDrzjd1GKT3a6J3DzxQmcRLm1JGf6Ts52fPRTt479xwvnOWI/7fb/3E9s3NY/ER72GdZxuJX1NNchMXf0rJ8zoz/XqnLvl3VX3y+wtj8sTr46SC67q7gx+jUQDYWUGuFjoYF4d7OnWt1+xhgS8jSCBhKcXnfv/eK3TDx6rX495zRkUGc7/3vrMlI7Opdf1ljrHpTtlN9uIH40zB3QwJfd0euzLs34m1487zwkUsRji+71P/u8YJ3jEw5Wj+8nfZo2Xh6ZcF/U17TfkZHnA99q/Mnu8M0MnvXaaeeRIqz/3zviRWKaB0iIBryNIIKE1yWrgXEhiGbwW8My9b8v7ry0ytdAWzFwtX608PO1u7Yo8ef2Ps5zb9H8udWZouKGf4HXwpCqp5NH3PQfEtkeIjq3QBbsiXYSj0bEk2hUy9uHLzJHY6cwU3UjtZ49d7owviYX+O9BpvtpCcuGIHuZoeRtyvfPJ/nOCBKoRggQSVss2mXL/H6+RvoM7myPuvfSbD+W1ybNMLbJpbyyW9/6xSO74wfNy3Tm/lacnvu3c7r/5VbnziudlcJuJ8sTd/zLPDu+kk5s7924GWwbozA8NM1PfWCKvPvuxfPDmUmfdikiatWwk7U/x/1nRzNz4iKsprW7p4l8a7GKlrRpPvfkTZ2v3o6Fh7b7nrg65AFk8x0lo18Su/L2y6dsdTtCMdaGpL1zuu6Hda6GmEANewvRPeEos0z97n9vJarDfv/78qTw54S1Ti65xk3rOCT0a7b8Pt6iReuHRD2TKE9OdTcE+3fakORre9QOfCtkcr4MOdQBnuPEL6sHb/iFTX19saqH97q2bpadFN4gbupiWLqrlhg7a1PEW8bZ41lr56eV/NDV/99LPn7rK1Nwbc8lz8v2+Ytm3t8jZhVNvhb566UH7Rap05osOWo1m2ae5cpvvzwe8jBYJJKQBQ0+1ChEfvrUsphCh3IQIN8pK/Zldp5q6WVxo7cpNplSezi557sH3TC00XcgqktvuG1ppIULpWIuzLuhiauHpipL63Mqg28Df+n9DTc3fIqEBNNQt0voPx9WrLV9+tkHWf7VVtm0ukL279x9ViFD6PdyM2aBbA4mAIIGEFBhvEKtGTeqZUtUrLT188XEzc6NmzfBvz08/WOV0eYQTaRbFsJG95Ed3DjK18LQbRRfU+lH/J6XP8T9zbrrKoy6W5Yab7dc1RNSI8PcMpt0J2o2Qt267ORLddWMHHfo5FsxY7SxiFuoWKRhk1PMPko03N90h3/rCC+B1BAkklR5nn2RKVa+s7HAvopuZG9HWSQgeBFqRLqsdinaL6BTPaPRT+gO3vOqMzQj+cz5f8I1MGDnFGTMSjY69uOzHvU3tSD8Y1VfOOt/d+Bb9ea7s/rATaq4842G5qscj8tBPX5c1n+eZZ4Sn3San9WpjaqFpK1E42iJRGVa4WE+CFgkkAoIEko42p8eLXpj1E/64Ry83R8ILvli52gE0yid1vaiHE65FQpcO11UwI3l8/L+cT+mRTLr9NXnldzNNLbxLfxx6XQ+9OF91Uz9Ti0zHKOjPk//d4cXBNn6TL//9+0IZf82fXc2cifZnRWqRqLQg4aJFYj1rSCABECSQdM4Zeoop2WmYWVeuuPEsZ3ClLpL0y2eGOxeqSAMtVWCMhHKzIFHNmpFbJKLNQqi4HoQub61LOkeim5a976K1Qb398nxTCk9bJXTBqIr09xWu1STYiF6PRRy/oGMWdObM2i9CjycJOO/ybhFn9xyLFgndcE1nfYSj/0Zi6cYBjhWCBJLOORfHvuaESqtVQ669/Rxnwy3d0CtacKiofItE9K6NaC0SBTsiTwNt1S7TlPx0/45opr622PWqi9oqMO9/0Vf+7HPukRfwwT+Ivvrmmy/McQY4uhFtPRClu7iGE3GMRN3KGSOhIrVKfLuGbg0kBoIEkk6LNsdHXVK5Ig0NL3xwh9z+q2HOpk02ygWJOIyR2B1lfYFWFVokzr4wekuMDkiMxYx3lptSeH3O62RKfrpPhu6XEY3upunW1NeXyNZNBaYWWr8IQao0aPxKRcdV0mBLtSLCehIMtESiIEggKfUa2NGUotMQod0YHU87uoWbgrs2iuMwRuL7wuKIgzZbtS0fJLJPir70dd63sTWl//fVhaYUnoa24Nabjt2i/x61tcPtqqFKF21auSTy4EUNMOFakUoPVn3XhooYJBhoiQRBkEC18sIj0+TrnC2mFt45F59qSpHpPh4aIuLhYFDzeXEcxkioSKseBgcHXQApeAfSUHS9jGirZoaiayJEE9wC1LlbK1MKT6eexuq7jbtMKbw2YRbxOhZjJJTOOtlb8L2plUeQQKIgSKDa0EWapjz5oSxy8UlWF7Ry49GXbzClo1du+mccxkioSOMkWrU9PEYi+6Tou3NuXm+3hPS+3aEvhMGCg4QubV4ZNrloTdFZNqEci1kbAeH23WDXTyQKggSqBd2A62/PzHDKiz6JHiT0Ih2tq+KOX18ScUCl7pcwcdTLhxZr0hATSbzHSKiCneFbJHTPjYADB6J3pWirhY1YWyRaBgWceNLukGjCtUgEdztVVJmDLdUXYdaT+HbNd6YEeBtBAglPl7wO3oBryexcZz+EaM4cGH6JaN3H4+rbBpjakf7z1/ly05Dfy4y3Dw82jLQSpYp1jIS7ro3IXRGBloiC7dE3fsrKbmxKsXETJIIFt5TEU936dUwpdsHdThVVdovEioVHrgeS9832St9uHogXggQS2sN3vuFswhVs//fFsuiTtaYWXqRxEhf9MPRW1EoHGD427k1TO6xGjchvp+AWiQPx6trYvteUQgs05UcLHKpWek1nrYlYRVqOO8Bm7EWssrIPt8DEKrjbqaLKnLWhQnVtMGMDiYQggYSlSzi/+8oCUyvPzYj/Lt2zncWlKtJBiZHWOfjgn6EHAkbriijfIhGvro3IF+jARV7DlX7KjSbSjqKh6IJTDY8/ztTCCw4SG76O3gXhZoZJRVnZsYeggEgtEnWOq9wgoS0PXywu373BQEskEoIEEpLuvRBpZP/SOV+ZUmTdeh+5B8Nl14de1lmtXZHnbE8dSrQWhPItEi6mf0Zp4VDRuhWCF6Va+HH0NSKuGXOOKbnTtU9bU4osOEhsdBEkTnQxOLSiFq2jd818uWyDKZUXaYyEquwwUXFhKrcLcQFeQJBAtaRbbetFP5pQW2k3aBx+sapIyzVHG9NQFrT7Z7xaJPbtiRwkgpfJXrU09EU0WLe+bWXEzWebWmR1MmrJJSN7mVp4u/L3lvu9uRkUmd2+SUxjNkbc0t/Vtuifzw+9P8nBCOtIqMru3qgYJNbRIoEEQpBAteWme+OcYUeOk2jQOHxT/az3vzClI0VtkQjqh3cza8PNGIlYgoS2SERadyLg6jHnOF0W0Qz3BQ43K1TOfPdzU/L7bG74MBZQu04tZ9dOt0a7fO6qZetNqbxI0z9V5Q+4LB8kWB4biYQggWorUutBQOMm9aTz6eUXSIoUJCJ9z1i6NkpK4jNrY1+Uro3gMSC6hLQuJR1NsxYN5aUZd8nlN/Q1R4506XW9nZ1E3Vg292tT8stxsfW3Gnp1T+cWzeh7LpC6DaLP2NC9O/K3HN5BNFikJbJVZU8B1Z1NA90Zu7bvk535kQfRAl5CkEC1tXLJ+rCrBgbrVqGf302XQijRuzbi3yJR6GKaa/ACUG42twqY8OQVct9zVzvjJi6+9kxn06vBV5wuD74wUn7+1FXmWZHpVucfvrXM1Pz0NXGzhba699kfyqBLu5paeaf1aiMvf/IzVy0XOkbjjednm9qRorVINMkKv7+KhjXdDTbSmiNuBGZvMNASiYYggWpLm/HddG+46VsPiNRvH0uLRLzGSBTujR4kgldz1O22n39oqqlFd+GIHvLTB4fJxN+NkMdfHSUP/mmkq507A7QVIJTXJn9iStE9NOU6J9TohVov2GMfvkye8P0sz79/u7Q/pbl5VmRv/Gl2xLEZ0QZbPvDHa5yWD20h6TWoowwb2csJMLp8+r+W/NLZDfZoBcIVQQKJhiCBas1N94buTnl803qmFlmkT52xTP8sidOsje/dBIlO5ZeF/stv/yeffrDK1CqPjif5378/M7XyZrzzubz98nxTi067WfSirRdsHQzaL8KW4BXpjqY6yyeSSNM/lc7a0OCgLSRPv/kT+eUzw51gof8e4tXtEQgSzNhAoiFIoFpbWWF+fjjB0xi/WrnJlI6kn4jDida1UW6MRBW2SLTueOSAyGcf+K/kLN9oavG3feseeWTsG6YWmgYaNzM4joYORnXTAhNp98+qojONdGwEMzaQaAgSqNb0Yhlu7YBgweMkvlq52ZSOpAMz9ZNoKPFukaiMro2AdWu+k/E/fNH5tF4Z7rrqT86gwUi2bNgpj9wZOWwcLV359MvPor/+wSHvWNJWifUECSQYggSqPTfdGz36tzcl/wDBSLSJ+7ev3+T0l7frkuXM8tCxEzWiXPjLTf90s0S2m66NwmLnFknwFNBg2mowYeQUZ8nveNEFsq7s8bAzFsMNfW3GXPKcqcWXbqgWvBdKJKVBa3wcSzrg0s3Kn4CXECRQ7bnp3tBP7af0ONEp62C3iksWV6TjKrS//JXZ42Xa2gflrWUTpcfZJ5lHQyu3IJWr3T/dvT2jrSURqQ9ff46H7nhdJlw7JWqAimbW1C/kiu4PuVqKO5iGiWv6Ph63Taq0BeqekS+5DhEq2qyNquJ2NgvgJQQJVHsaCnR1xWiCx0lURpN/zEtku1hHQhVGCRKq+YmRV4mcPW2l3HzRs3LfTa84gSAWi2d/JQ/e9g/n4m27OZeOD7h+4G9ddUNEouMubr34DzH/Hfbtid5FVBWONswBxwJBAtXets0FsrTCokihBO+78eJjH7jqEolFzNM/XawjoQr3Re7aUKHGSYSiaz5oIBh13tPy1C/+I9PeWBJyOuJn876Wvz71kYy96k/y08smy9TXF5tH7GmYGHXu03L/za/GFOS0BUQDxLX9nnAGVhbtLzGPuJdzlAEGSGYpvRuP88YoI8Bn3vbfmFJkOp1PL/Zu6aJKuh5CJDrW4Ie9HnVWgAzQaX66ZkA83HnF84fWtTij30nS85wOztbdekuvneYv++7T0mpImq+8fP43MuWJyNMWlU6LjGbuh1/Kq7+faWqJoXWHZnLyGdnOLq2tKwQh3fhrw9fbnKWk9XdqEx6C6Y6v766639Ts6FiPeIdPIBEQJOAplRUkdBVEXcAoGm3ar7gS45j7L5aRdww0NXs/vfyPYXcOxbGni1zFsj5FRUPa3+dqL5NgGnCH/6SfqZV3WddJpgR4W42Wdfo8YMrAMRduamVFy3yf/GL59Kd7GfQZ3FmanBB+qWO1Y9se59N7sEWfrJG3/zrf+fM25PpH1G/esDPm27I5ubJ5/Q7n6+E9utx4/4tOcTXttqIvFq0Lu4pnJBN/P0JatMmUuvXrHHHTqcsbcreZZwLeRYsEPKWyWiTUzx67XK4cHfrTX0Duqs0y8uwnTQ3J5pSerWXco5dJ527lN3KLZM60lfLYuH86YTUWA4aeKo++fL2pHUn3Rfn1mNdMDfAuggQ8RadVZtSt7UxZdG7HpUud42pJHV+5Tobv3lfP8NV1Q65Yg8SQ4We4Gu/wp4enOuMTkLzOu7yb799LDznp5CxnN9RQtMXg7b/Ok//81f1S38F+89po6Tu4s6kd6ft9RXJe64meWSwLCIcgAQAR1G+UIa3aZoquJ6ZrduhqooF7WxpQ/jZrvKmFd++Nf5OP/hN6vxLAK5j+CQAR6NoY2gK2aul6ZyqsTic+mhChLvlRb1OKbNAlp5kS4F0ECQCoYt/l7TKlyAb6gkS8dhcFKgtBAgCqmK7pccOgpyKOxfl0+pe+5zx91K0fQGVjjAQAHEM3/WKIjBo/2NTE2Vr9hUc/kOn/XGqOAN5GkACAY6z7We1k7MOXyeypXzghAkgkBAkAAGCNMRIAAMAaQQIAAFgjSAAAAGsECQAAYI0gAQAArBEkAACANYIEAACwRpAAAADWCBIAAMAaQQIAAFgjSAAAAGsECQAAYI0gAQAArBEkAACANYIEAACwRpAAAADWCBIAAMAaQQIAAFgjSAAAAGsECQAAYI0gAQAArBEkAACANYIEAACwRpAAAADWCBIAAMAaQQIAAFgjSAAAAGsECQAAYI0gAQAArBEkAACANYIEAACwltK78bgyU4Znlfn+C+DlAlBdpRzxf3gfQcLT/AGiU9eWMmr8YOk1qJOk107zPwQA1UzR/hJZMCNHpjz5oeQs30igSBAECc8KhIgW8vz7dxAgACQNDRQ3X/Q7X5jII0wkAMZIeJQ/3ZXKqPHnEyIAJBU95+m5T8+BfNL1PoKEJ+lbp0zKysqc7gwASDZ67tNzYOB8CO8iSHiQ/y3jf/PQGgEgGfnPff7zIDHC2wgSHqVBnLcPgGSm50CnUQKeRpDwJH8KBwBwPvQ6goSn8eYBkMw4ByYCggQAALBGkAAAANYIEgAAwBpBAgAAWCNIAAAAawQJAABgjSABAACsESQAAIA1thH3oDLd8a5Md707KAt3PGuO2issLJTNmzfL7t27pbS01BwFgPhKTU2V+vXrS1ZWlmRkZJij9s5sfLukSA1JSUn13fO516t4Zao5DRGrV6+WXbt2ESIAVCo9x+i5Rs85eu5BcqBFwoPi2SKRm5vrvLGPP/54admypdSsWdM8AgDxdeDAAdm4caNs375dGjZsKO3atTOP2KFFIjHwylRz2p2hCBEAKpueY/RcowLnHlR/BIlqLtCdQYgAUBUC5xq6UpMHQQIAAFgjSAAAAGsECQAAYI0gAQAArBEkAACANYIEAACwRpAAAADWCBIAAMAaQQIAAFgjSAAAAGsECQAAYI0gASBhle5cL6tW5sjmfeYAgCpHkACOpZJCKdiyTnJW5/hu62Tz3iJJjK2OSqVob4EU7D7yVlhinhJM/54VHy8tkr3OsUIJ9SWlRXvN1+yVIvNLKSkM/h758tmi5ZL79VpZvDhHipxnAKhqKb0bjyszZXhEme8kXVbmu8lBWbjjWXPUzpIlS5z7M844w7mHR5TulLULFsma/BDBIa2BtDi5h3RvlWEOeFG+LJ0+T/LCXL1Ta2dKu9N7SKfMNP+BtXPk3ZydTrFRp2HSr72vsG2pTJ+f5wSA9Ja95LzTm5b7ZJO/bLrM2+g8Ki16ny/dm+i3eVf02/i/R4GsmjlLcvf6/rymXWVor2z/F+KYi9d558zGt0uK1JCUlFTfPZ97vYpXBqhqpVtl6UdzJOdQiEiV1LQ0SQvs9F5SIHmfzZQ5awvNgcRTuj9f1s6bKcu3mQNRFG1cJHNj/vs2kC4DzpeBA86V8wkRwDFDkACqVKmsW7hI8vb7a2lNukj/IUNl6JAhMuTCoXJ+92yp6wSKUtmZM09W7BLZuWaxzJs3z3dbIXkVmy+25cgC57Hlsr5YpCD38HM3m6c4Nq0wxxdL7m7/oUPPXZIrBXs2y6ols2Tm9Gny0ScLZGlufsjuhpDSW0ifYcNkmHMbKgNPzhR/O0SRrF+99sgWl5D07ztHln7n7tl+BZK7bKmsWLlcFn9R7m8LoAoRJICqtD9HvtlmLpb12kn/3u2kgWn917djeouuMuC0LHMhLpS8tXnSqGmaFObnS37+OsldE9yX4AslX+XKVn2sOF2a1RIp2b3D9zx9boHsNc9y7Cswx3dIgfkWh567JUfmfOwLGJt8X1NUIoW7t0reqnkyc9lWlyEgWKrUbdtFWhxnqoV7ZIcpRlckeUvnytoIAydTU0zBUSIF2/Xv5LvtKve3BVCFCBJAVdq049AFvkHzThJqFERqi2xpmu4vl+zyXSQbdpIW9f31grwc3+dwY/8aWZ+vl/pUyczuIOZLYldaKqUp6dKoZTtp3zpT0s3FumhjjqwxLSexKZKSA6boUt1GjfwnowM7JWfuUtkaJsG0bN9F2nfoIh1amQMAjjmCBFCVDpp7n9SUcG+/oONl+gXp0iE703+0cLOs3aQFX6hYnecPFbWaSes2R/NWTpOs08+Tfqd3kU6n9pEBbeua43tk5xZTjKhUCs2MjIL8PFn16dJDgzDTjs+STH8xorRmfaVnSxOF9ufJorlrJdSIifSm7aRTx3bStLY5AOCYI0gAVSmtxqE3XUlJcDdFsCJtJPCrmeZ0c6S2ae10XWhz/nffrvNdun2BYov/UptxQnvJckq26kqDFodPBelNGpjWjVI56GagRNFmWf7JLJmlt3lLJXeH+aLaWXLqyW5/slRpeno/6dTI/3OU7syRFVtcj9IAcAwRJICqlJ0pDUxx78aVIZvwC9fkynfmGpreKMs8P0van+DvCCnNXy85a9bJd8VaayAtOga+Y3gFReFCS5xp8EmvK5nZXWXguT2kRUwtBxnSvm/PQ19TeiD2ERoAqh5BAqhKqe2lUyvThF+UJwtmLpDcLf4FmUqLdkreCt+n+tUF/kGONRtJu86HOwYadMwW/wf2Asldne88JzUzWzoEXazT0mqY0k75ZmmeFJWWStHWVbJ8QyVOJQ2etXHhEBly/kDp0zVb6tqcXVKbSveerUOOHQHgTQQJoIpldusnnRqbqRqFW2XVoo9k2rvvynvT58jSdQX+aZcpGZLdva+0C/5EX7u9tDvh0BQPnzRpdmLrcm/iBm2yJDDCoShvqUx/7z2ZviBXCmIc/HhMNTxV+nQygy8BeB7vVaDKZUj7s86VPh2aSt3gXOBIlfRG2dJ1wEDp2uzIt2dWu6zDn9aPayHtm5tywHFdpF/P7KAppT5pdaVF26b2szqOgYz2QYMvAXgaS2R7EEtkJxndh+L7El+GqC316qaHSPdFUrgvTTKOS5XSHctl5qfrpdD3rMxTLpQ+kWZr+L7v3tLaUjedzwuoWiyRnVx4ZYBjLS1DGtRvIA1ChgifbStlzoz35L1p02TqXA0RPrVbSvtoUz5935cQAaCycZYBPC5/y07RORelJSVSqu2H6U3l1L5dXa3PAACVjSABeFzmqefKsCHnSv8B/aX/wPNl6Pm9pHVgCWoAOMYIEkAiiNb9AQDHCOckAABgjSABAACsESQAAIA1ggQAALBGkAAAANYIEgAAwBpBAgAAWCNIAAAAawQJAABgjSABAACsESSqudRU/0t84MAB5x4AKlPgXBM496D645Wu5urXr+/cb9y4kTABoFLpOUbPNSpw7kH1l9K78TjdmBgeUialUlbmu8lBWbjjWXPUTmFhoaxevVpKS0vNEQCoXNoa0bFjR8nIyDBH7JzZ+HZJkRqSkpLqu+dzr1fxylRz+kbWN3TDhg1pagRQqfQco+eaeIQIJA5aJDwoni0SAJCoaJFIDLwyAADAGkECAABYI0gAAABrBAkAAGCNIAEAAKwRJAAAgDWCBAAAsEaQAAAA1ggSAADAGitbelC8V7b88ssv5cUXX5T58+dLUVGROQoA8ZWeni69e/eW0aNHS+fOnc1Re6xsmRh4Zao5DRH6pv7kk08IEQAqlZ5j9Fyj5xw99yA5ECSqOW2JIEAAqEp6ztFzD5IDQaKa0+4MAKhqnHuSB0GimqM1AsCxwLkneRAkAACANYIEAACwRpAAAADWCBIAAMAaQQIAAFgjSAAAAGsECQAAYI0gAQAArBEkAACANYIEgMhaDZexjz4uk0afZQ4AwGEECSCZdTlLhtwwQSY9OMl3myCjzuspzc1DASMn3iojzxskQ265Ryb1MgcBwCBIAMmo1XCZ9PpMWfzyMzJpzHAZctEQ32243PboZHln7jsyedyQQ4Eif0+xv1C8R/IX+IsAEECQAJJNq5Ey+aUJMqRdPXPAlxEKi6XY5AWp1Vx6XnOfPHH3aU512t03yK0/v1fuHH2tPO0cAYDDCBJAUmkuYx+7TXo29Nf25E6Tx6/rIX3795W+fXvIJRNfkc+3F8v2Wc/J3U987jxnyMRJMuGmG2Xs/Y/LKP8R+b8X35Q3X39Tpky8VIbc8rhM+ecH8s5vhzuPAkguBAkgmfQaK4M61PKXN82Qe0fcK2+s8lfVpg+ellEX9JULxr0im8yxzFZtpE07/62F/4g0N/XTht4jk0YPktNaHy/1Msz3BZBUCBJAMjmvzaGxD5s+e1o+NWVrtXzh4eAe2ZT7jXyzId8cBJBMCBJAMqlh7n2KDgTaHIKMeEbemTVX5vpur/7cHIvk4CaZdvdAuWTEVTLqoWnmIIBkQpAAksnewIhKkfSMnqYUpEYtp4uilt7c9FRsWCT3zjJlAEmJIAEkkzdz5BtTbN5rlIxsZSoAYIkgASSTDb+Wtxfs8Zfr9ZSxL78pk244SzpqvVVPufSkTEl3HgQAdwgSQJJ5Zcy98nau6eKo10aGjHlGXl28WBb/e7L83yVt5FCPxuFeEAAIiyABJJ1P5dcjbpDH318t2wvNoSB7tq6WGS/eK3c+ag4AQAQpvRuPKzNleESZlEpZme8mB2XhjmfNUTs9evQwJSC05j0GyWlNa4kUb5fP/7fo0PoRwNFavHixKdk5s/HtkiI1JCUl1XfP516v4pUBktymxTNk2vvTZBohAoAFggQAALBGkAAAANYIEgAAwBpBAgAAWCNIAAAAawQJAABgjSABAACsESQAAIA1ggQAALBGkAAAANYIEgAAwBpBAgAAWCNIVHMHDhwwJQCoOpx7kgdBoporLi42JQCoOpx7kgdBopo7ePCgFBYW8ukAQJXQc42ec/Tcg+SQ0rvxuDJThkeUSamUlfluclAW7njWHLVz6qmn8skAQJWrVauWrFixwtTsnNn4dkmRGpKSkuq753OvV/HKVHNnnHGGKQFA1eHckzwIEtXcrbfeKrVr1zY1AKh8es7Rcw+SA0GimuvVq5dMnjxZ+vTpQ6AAUKn0HKPnGj3n6LkHyYExEh4UzzESAJCoGCORGHhlAACANYIEAACwRpAAAADWCBIAAMAaQQIAAFgjSAAAAGsECQAAYI0gAQAArBEkAACANYIEAACwRpAAAADWCBIeV7S/xJQAIHlw7kscBAlPS5H5M1aZMgAkD/+5L8VfgacRJDxJ3zz+N9CLT0wlmQNIKnrO03Of3+HzIbyJIOFRKb73TYrvv5zlG2T0hU/Kx+9/RqAAUK3pOU7PdXrO03OfngP1XAhvS+ndeFyZKcMzyvz/lZX6/m9upqyPBfDCAUh05XOCRodUX3jw3fT+UJlWCS8jSHiUBglxAoSWDocI58XyHQOAaiXFHxcOhQknROiRQJCAVxEkPMuEBhMm/PXAS8VLBqC6ORwjnP8fChH+o/AugoSnBaKDCRJOhZcLQHWlAcJ/75S1SIjwPIJEQjjcFkGQAFB9BUcHAkSiIEgAAABrTP8EAADWCBIAAMAaQQIAAFgjSAAAAGsECQAAYI0gAQAArBEkAACANYIEAACwRpAAAADWCBIAAMAaQQIAAFgjSAAAAGsECQAAYI0gAQAArBEkAACANYIEAACwRpAAAADWCBIAAMAaQQIAAFgjSAAAAGsECQAAYI0gAQAArBEkAACANYIEAACwRpAAAADWCBIAAMAaQQIAAFgjSAAAAGsECQAAYI0gAQAArBEkAACANYIEAACwRpAAAADWCBIAAMAaQQIAAFgjSAAAAGsECQAAYI0gAQAArBEkAACANYIEAACwRpAAAADWCBIAAMAaQQIAAFgjSAAAAGsECQAAYI0gAQAArBEkAACANYIEAACwRpAAAADWCBIAAMAaQQIAAFgjSAAAAGsECQAAYI0gAQAArBEkAACANYIEAACwRpAAAADWCBIAAMAaQQIAAFgjSAAAAGsECQAAYI0gAQAArBEkAACANYIEAACwRpAAAADWCBIAAMAaQQIAAFgjSAAAAGsECQAAYI0gAQAArBEkAACANYIEAACwRpAAAADWCBIAAMAaQQIAAFgjSAAAAGsECQAAYI0gAQAArBEkAACANYIEAACwRpAAAADWCBIAAMAaQQIAAFgjSAAAAGsECQAAYI0gAQAArBEkAACANYIEAACwRpAAAACWRP4ffTS2+tm8D+YAAAAASUVORK5CYII=;" vertex="1" parent="1">
          <mxGeometry x="570" y="90" width="623.53" height="480" as="geometry" />
        </mxCell>
      </root>
    </mxGraphModel>
  </diagram>
  <diagram id="9MRo8fZ_-pYFTL-nI5HW" name="Equality Operators: == vs. ===">
    <mxGraphModel grid="1" page="1" gridSize="10" guides="1" tooltips="1" connect="1" arrows="1" fold="1" pageScale="1" pageWidth="4681" pageHeight="3300" math="0" shadow="0">
      <root>
        <mxCell id="0" />
        <mxCell id="1" parent="0" />
        <mxCell id="13wuNbQRPUNYZlS0Gtw--4" value="&lt;div style=&quot;color: rgb(166 , 172 , 205) ; background-color: rgb(41 , 45 , 62) ; font-family: &amp;#34;consolas&amp;#34; , &amp;#34;courier new&amp;#34; , monospace ; font-weight: normal ; line-height: 18px&quot;&gt;&lt;div&gt;&lt;font style=&quot;font-size: 18px&quot;&gt;&lt;span style=&quot;color: rgb(199 , 146 , 234)&quot;&gt;const&lt;/span&gt;&lt;span style=&quot;color: rgb(166 , 172 , 205)&quot;&gt; &lt;/span&gt;&lt;span style=&quot;color: rgb(166 , 172 , 205)&quot;&gt;age&lt;/span&gt;&lt;span style=&quot;color: rgb(166 , 172 , 205)&quot;&gt; &lt;/span&gt;&lt;span style=&quot;color: rgb(137 , 221 , 255)&quot;&gt;=&lt;/span&gt;&lt;span style=&quot;color: rgb(166 , 172 , 205)&quot;&gt; &lt;/span&gt;&lt;span style=&quot;color: rgb(255 , 203 , 107)&quot;&gt;Number&lt;/span&gt;&lt;span style=&quot;color: rgb(166 , 172 , 205)&quot;&gt;(&lt;/span&gt;&lt;span style=&quot;color: rgb(130 , 170 , 255)&quot;&gt;prompt&lt;/span&gt;&lt;span style=&quot;color: rgb(166 , 172 , 205)&quot;&gt;(&lt;/span&gt;&lt;span style=&quot;color: rgb(137 , 221 , 255)&quot;&gt;`&lt;/span&gt;&lt;span style=&quot;color: rgb(195 , 232 , 141)&quot;&gt;Please enter your age: &lt;/span&gt;&lt;span style=&quot;color: rgb(137 , 221 , 255)&quot;&gt;`&lt;/span&gt;&lt;span style=&quot;color: rgb(166 , 172 , 205)&quot;&gt;))&lt;/span&gt;&lt;/font&gt;&lt;/div&gt;&lt;div&gt;&lt;font size=&quot;3&quot;&gt;&lt;span style=&quot;color: #89ddff ; font-style: italic&quot;&gt;if&lt;/span&gt;&lt;span style=&quot;color: #a6accd&quot;&gt; (&lt;/span&gt;&lt;span style=&quot;color: #a6accd&quot;&gt;age&lt;/span&gt;&lt;span style=&quot;color: #a6accd&quot;&gt; &lt;/span&gt;&lt;span style=&quot;color: #89ddff&quot;&gt;===&lt;/span&gt;&lt;span style=&quot;color: #a6accd&quot;&gt; &lt;/span&gt;&lt;span style=&quot;color: #f78c6c&quot;&gt;100&lt;/span&gt;&lt;span style=&quot;color: #a6accd&quot;&gt;) &lt;/span&gt;&lt;span style=&quot;color: #89ddff&quot;&gt;{&lt;/span&gt;&lt;/font&gt;&lt;/div&gt;&lt;div&gt;&lt;font size=&quot;3&quot;&gt;&lt;span style=&quot;color: #f07178&quot;&gt;&amp;nbsp; &lt;/span&gt;&lt;span style=&quot;color: #a6accd&quot;&gt;console&lt;/span&gt;&lt;span style=&quot;color: #89ddff&quot;&gt;.&lt;/span&gt;&lt;span style=&quot;color: #82aaff&quot;&gt;log&lt;/span&gt;&lt;span style=&quot;color: #f07178&quot;&gt;(&lt;/span&gt;&lt;span style=&quot;color: #89ddff&quot;&gt;&#39;&lt;/span&gt;&lt;span style=&quot;color: #c3e88d&quot;&gt;Congrats you have reached the age of 100&lt;/span&gt;&lt;span style=&quot;color: #89ddff&quot;&gt;&#39;&lt;/span&gt;&lt;span style=&quot;color: #f07178&quot;&gt;)&lt;/span&gt;&lt;/font&gt;&lt;/div&gt;&lt;div&gt;&lt;font size=&quot;3&quot;&gt;&lt;span style=&quot;color: #89ddff&quot;&gt;}&lt;/span&gt;&lt;span style=&quot;color: #a6accd&quot;&gt; &lt;/span&gt;&lt;span style=&quot;color: #89ddff ; font-style: italic&quot;&gt;else&lt;/span&gt;&lt;span style=&quot;color: #a6accd&quot;&gt; &lt;/span&gt;&lt;span style=&quot;color: #89ddff ; font-style: italic&quot;&gt;if&lt;/span&gt;&lt;span style=&quot;color: #a6accd&quot;&gt; (&lt;/span&gt;&lt;span style=&quot;color: #a6accd&quot;&gt;age&lt;/span&gt;&lt;span style=&quot;color: #a6accd&quot;&gt; &lt;/span&gt;&lt;span style=&quot;color: #89ddff&quot;&gt;&amp;gt;=&lt;/span&gt;&lt;span style=&quot;color: #a6accd&quot;&gt; &lt;/span&gt;&lt;span style=&quot;color: #f78c6c&quot;&gt;18&lt;/span&gt;&lt;span style=&quot;color: #a6accd&quot;&gt;) &lt;/span&gt;&lt;span style=&quot;color: #89ddff&quot;&gt;{&lt;/span&gt;&lt;/font&gt;&lt;/div&gt;&lt;div&gt;&lt;font size=&quot;3&quot;&gt;&lt;span style=&quot;color: #f07178&quot;&gt;&amp;nbsp; &lt;/span&gt;&lt;span style=&quot;color: #a6accd&quot;&gt;console&lt;/span&gt;&lt;span style=&quot;color: #89ddff&quot;&gt;.&lt;/span&gt;&lt;span style=&quot;color: #82aaff&quot;&gt;log&lt;/span&gt;&lt;span style=&quot;color: #f07178&quot;&gt;(&lt;/span&gt;&lt;span style=&quot;color: #89ddff&quot;&gt;`&lt;/span&gt;&lt;span style=&quot;color: #c3e88d&quot;&gt;You are eligible to vote&lt;/span&gt;&lt;span style=&quot;color: #89ddff&quot;&gt;`&lt;/span&gt;&lt;span style=&quot;color: #f07178&quot;&gt;)&lt;/span&gt;&lt;/font&gt;&lt;/div&gt;&lt;div&gt;&lt;font size=&quot;3&quot;&gt;&lt;span style=&quot;color: #89ddff&quot;&gt;}&lt;/span&gt;&lt;span style=&quot;color: #a6accd&quot;&gt; &lt;/span&gt;&lt;span style=&quot;color: #89ddff ; font-style: italic&quot;&gt;else&lt;/span&gt;&lt;span style=&quot;color: #a6accd&quot;&gt; &lt;/span&gt;&lt;span style=&quot;color: #a6accd&quot;&gt;console&lt;/span&gt;&lt;span style=&quot;color: #89ddff&quot;&gt;.&lt;/span&gt;&lt;span style=&quot;color: #82aaff&quot;&gt;log&lt;/span&gt;&lt;span style=&quot;color: #a6accd&quot;&gt;(&lt;/span&gt;&lt;span style=&quot;color: #89ddff&quot;&gt;`&lt;/span&gt;&lt;span style=&quot;color: #c3e88d&quot;&gt;You can apply for voting in &lt;/span&gt;&lt;span style=&quot;color: #89ddff&quot;&gt;${&lt;/span&gt;&lt;span style=&quot;color: #f78c6c&quot;&gt;18&lt;/span&gt;&lt;span style=&quot;color: #a6accd&quot;&gt; &lt;/span&gt;&lt;span style=&quot;color: #89ddff&quot;&gt;-&lt;/span&gt;&lt;span style=&quot;color: #a6accd&quot;&gt; &lt;/span&gt;&lt;span style=&quot;color: #a6accd&quot;&gt;age&lt;/span&gt;&lt;span style=&quot;color: #89ddff&quot;&gt;}&lt;/span&gt;&lt;span style=&quot;color: #89ddff&quot;&gt;`&lt;/span&gt;&lt;span style=&quot;color: #a6accd&quot;&gt;)&lt;/span&gt;&lt;/font&gt;&lt;/div&gt;&lt;br&gt;&lt;/div&gt;" style="text;whiteSpace=wrap;html=1;fontSize=18;" vertex="1" parent="1">
          <mxGeometry x="500" y="1350" width="550" height="140" as="geometry" />
        </mxCell>
      </root>
    </mxGraphModel>
  </diagram>
  <diagram id="-jx0MKwhQCkESkc50BTO" name="Boolean Logic">
    <mxGraphModel grid="1" page="1" gridSize="10" guides="1" tooltips="1" connect="1" arrows="1" fold="1" pageScale="1" pageWidth="4681" pageHeight="3300" math="0" shadow="0">
      <root>
        <mxCell id="0" />
        <mxCell id="1" parent="0" />
        <mxCell id="RhSaRwZYLTcTo1G2wTgt-1" value="&lt;div style=&quot;color: rgb(166 , 172 , 205) ; background-color: rgb(41 , 45 , 62) ; font-family: &amp;#34;consolas&amp;#34; , &amp;#34;courier new&amp;#34; , monospace ; font-weight: normal ; line-height: 18px&quot;&gt;&lt;div&gt;&lt;font style=&quot;font-size: 18px&quot;&gt;&lt;span style=&quot;color: rgb(199 , 146 , 234)&quot;&gt;let&lt;/span&gt;&lt;span style=&quot;color: rgb(166 , 172 , 205)&quot;&gt; &lt;/span&gt;&lt;span style=&quot;color: rgb(166 , 172 , 205)&quot;&gt;randomNum&lt;/span&gt;&lt;span style=&quot;color: rgb(166 , 172 , 205)&quot;&gt; &lt;/span&gt;&lt;span style=&quot;color: rgb(137 , 221 , 255)&quot;&gt;=&lt;/span&gt;&lt;span style=&quot;color: rgb(166 , 172 , 205)&quot;&gt; &lt;/span&gt;&lt;span style=&quot;color: rgb(247 , 140 , 108)&quot;&gt;10&lt;/span&gt;&lt;/font&gt;&lt;/div&gt;&lt;font size=&quot;3&quot;&gt;&lt;br&gt;&lt;/font&gt;&lt;div&gt;&lt;font size=&quot;3&quot;&gt;&lt;span style=&quot;color: #89ddff ; font-style: italic&quot;&gt;if&lt;/span&gt;&lt;span style=&quot;color: #a6accd&quot;&gt; (&lt;/span&gt;&lt;span style=&quot;color: #a6accd&quot;&gt;randomNum&lt;/span&gt;&lt;span style=&quot;color: #a6accd&quot;&gt; &lt;/span&gt;&lt;span style=&quot;color: #89ddff&quot;&gt;&amp;gt;=&lt;/span&gt;&lt;span style=&quot;color: #a6accd&quot;&gt; &lt;/span&gt;&lt;span style=&quot;color: #f78c6c&quot;&gt;0&lt;/span&gt;&lt;span style=&quot;color: #a6accd&quot;&gt; &lt;/span&gt;&lt;span style=&quot;color: #89ddff&quot;&gt;&amp;amp;&amp;amp;&lt;/span&gt;&lt;span style=&quot;color: #a6accd&quot;&gt; &lt;/span&gt;&lt;span style=&quot;color: #a6accd&quot;&gt;randomNum&lt;/span&gt;&lt;span style=&quot;color: #a6accd&quot;&gt; &lt;/span&gt;&lt;span style=&quot;color: #89ddff&quot;&gt;&amp;lt;=&lt;/span&gt;&lt;span style=&quot;color: #a6accd&quot;&gt; &lt;/span&gt;&lt;span style=&quot;color: #f78c6c&quot;&gt;20&lt;/span&gt;&lt;span style=&quot;color: #a6accd&quot;&gt;) &lt;/span&gt;&lt;span style=&quot;color: #89ddff&quot;&gt;{&lt;/span&gt;&lt;/font&gt;&lt;/div&gt;&lt;div&gt;&lt;font size=&quot;3&quot;&gt;&lt;span style=&quot;color: #f07178&quot;&gt;&amp;nbsp; &lt;/span&gt;&lt;span style=&quot;color: #a6accd&quot;&gt;console&lt;/span&gt;&lt;span style=&quot;color: #89ddff&quot;&gt;.&lt;/span&gt;&lt;span style=&quot;color: #82aaff&quot;&gt;log&lt;/span&gt;&lt;span style=&quot;color: #f07178&quot;&gt;(&lt;/span&gt;&lt;span style=&quot;color: #89ddff&quot;&gt;&#39;&lt;/span&gt;&lt;span style=&quot;color: #c3e88d&quot;&gt;this number is greater than 0 and less than 20&lt;/span&gt;&lt;span style=&quot;color: #89ddff&quot;&gt;&#39;&lt;/span&gt;&lt;span style=&quot;color: #f07178&quot;&gt;)&lt;/span&gt;&lt;/font&gt;&lt;/div&gt;&lt;div&gt;&lt;span style=&quot;color: #89ddff&quot;&gt;&lt;font size=&quot;3&quot;&gt;}&lt;/font&gt;&lt;/span&gt;&lt;/div&gt;&lt;br&gt;&lt;/div&gt;" style="text;whiteSpace=wrap;html=1;fontSize=24;" vertex="1" parent="1">
          <mxGeometry x="60" y="920" width="580" height="120" as="geometry" />
        </mxCell>
        <mxCell id="RhSaRwZYLTcTo1G2wTgt-3" value="&lt;div style=&quot;color: rgb(166 , 172 , 205) ; background-color: rgb(41 , 45 , 62) ; font-family: &amp;#34;consolas&amp;#34; , &amp;#34;courier new&amp;#34; , monospace ; font-weight: normal ; line-height: 18px&quot;&gt;&lt;div&gt;&lt;font style=&quot;font-size: 18px&quot;&gt;&lt;span style=&quot;color: rgb(199 , 146 , 234)&quot;&gt;let&lt;/span&gt;&lt;span style=&quot;color: rgb(166 , 172 , 205)&quot;&gt; &lt;/span&gt;&lt;span style=&quot;color: rgb(166 , 172 , 205)&quot;&gt;randomNum&lt;/span&gt;&lt;span style=&quot;color: rgb(166 , 172 , 205)&quot;&gt; &lt;/span&gt;&lt;span style=&quot;color: rgb(137 , 221 , 255)&quot;&gt;=&lt;/span&gt;&lt;span style=&quot;color: rgb(166 , 172 , 205)&quot;&gt; &lt;/span&gt;&lt;span style=&quot;color: rgb(247 , 140 , 108)&quot;&gt;10&lt;/span&gt;&lt;/font&gt;&lt;/div&gt;&lt;font size=&quot;3&quot;&gt;&lt;br&gt;&lt;/font&gt;&lt;div&gt;&lt;font size=&quot;3&quot;&gt;&lt;span style=&quot;color: #89ddff ; font-style: italic&quot;&gt;if&lt;/span&gt;&lt;span style=&quot;color: #a6accd&quot;&gt; (&lt;/span&gt;&lt;span style=&quot;color: #a6accd&quot;&gt;randomNum&lt;/span&gt;&lt;span style=&quot;color: #a6accd&quot;&gt; &lt;/span&gt;&lt;span style=&quot;color: #89ddff&quot;&gt;&amp;lt;=&lt;/span&gt;&lt;span style=&quot;color: #a6accd&quot;&gt; &lt;/span&gt;&lt;span style=&quot;color: #f78c6c&quot;&gt;5&lt;/span&gt;&lt;span style=&quot;color: #a6accd&quot;&gt; &lt;/span&gt;&lt;span style=&quot;color: #89ddff&quot;&gt;||&lt;/span&gt;&lt;span style=&quot;color: #a6accd&quot;&gt; &lt;/span&gt;&lt;span style=&quot;color: #a6accd&quot;&gt;randomNum&lt;/span&gt;&lt;span style=&quot;color: #a6accd&quot;&gt; &lt;/span&gt;&lt;span style=&quot;color: #89ddff&quot;&gt;&amp;gt;=&lt;/span&gt;&lt;span style=&quot;color: #a6accd&quot;&gt; &lt;/span&gt;&lt;span style=&quot;color: #f78c6c&quot;&gt;9&lt;/span&gt;&lt;span style=&quot;color: #a6accd&quot;&gt;) &lt;/span&gt;&lt;span style=&quot;color: #89ddff&quot;&gt;{&lt;/span&gt;&lt;/font&gt;&lt;/div&gt;&lt;div&gt;&lt;font size=&quot;3&quot;&gt;&lt;span style=&quot;color: #f07178&quot;&gt;&amp;nbsp; &lt;/span&gt;&lt;span style=&quot;color: #a6accd&quot;&gt;console&lt;/span&gt;&lt;span style=&quot;color: #89ddff&quot;&gt;.&lt;/span&gt;&lt;span style=&quot;color: #82aaff&quot;&gt;log&lt;/span&gt;&lt;span style=&quot;color: #f07178&quot;&gt;(&lt;/span&gt;&lt;/font&gt;&lt;/div&gt;&lt;div&gt;&lt;font size=&quot;3&quot;&gt;&lt;span style=&quot;color: #f07178&quot;&gt;&amp;nbsp; &amp;nbsp; &lt;/span&gt;&lt;span style=&quot;color: #89ddff&quot;&gt;&#39;&lt;/span&gt;&lt;span style=&quot;color: #c3e88d&quot;&gt;This number is not less than or equal to 5 but is still greater than or equal 9, so ???&lt;/span&gt;&lt;span style=&quot;color: #89ddff&quot;&gt;&#39;&lt;/span&gt;&lt;/font&gt;&lt;/div&gt;&lt;div&gt;&lt;span style=&quot;color: #f07178&quot;&gt;&lt;font size=&quot;3&quot;&gt;&amp;nbsp; )&lt;/font&gt;&lt;/span&gt;&lt;/div&gt;&lt;div&gt;&lt;span style=&quot;color: rgb(137 , 221 , 255)&quot;&gt;&lt;font size=&quot;3&quot;&gt;}&lt;/font&gt;&lt;/span&gt;&lt;/div&gt;&lt;/div&gt;" style="text;whiteSpace=wrap;html=1;fontSize=18;" vertex="1" parent="1">
          <mxGeometry x="60" y="1110" width="840" height="160" as="geometry" />
        </mxCell>
        <mxCell id="RhSaRwZYLTcTo1G2wTgt-5" value="&lt;div style=&quot;color: rgb(166 , 172 , 205) ; background-color: rgb(41 , 45 , 62) ; font-family: &amp;#34;consolas&amp;#34; , &amp;#34;courier new&amp;#34; , monospace ; font-weight: normal ; line-height: 18px&quot;&gt;&lt;div&gt;&lt;font style=&quot;font-size: 18px&quot;&gt;&lt;span style=&quot;color: rgb(199 , 146 , 234)&quot;&gt;let&lt;/span&gt;&lt;span style=&quot;color: rgb(166 , 172 , 205)&quot;&gt; &lt;/span&gt;&lt;span style=&quot;color: rgb(166 , 172 , 205)&quot;&gt;randomNum&lt;/span&gt;&lt;span style=&quot;color: rgb(166 , 172 , 205)&quot;&gt; &lt;/span&gt;&lt;span style=&quot;color: rgb(137 , 221 , 255)&quot;&gt;=&lt;/span&gt;&lt;span style=&quot;color: rgb(166 , 172 , 205)&quot;&gt; &lt;/span&gt;&lt;span style=&quot;color: rgb(247 , 140 , 108)&quot;&gt;10&lt;/span&gt;&lt;/font&gt;&lt;/div&gt;&lt;font size=&quot;3&quot;&gt;&lt;br&gt;&lt;/font&gt;&lt;div&gt;&lt;font size=&quot;3&quot;&gt;&lt;span style=&quot;color: #89ddff ; font-style: italic&quot;&gt;if&lt;/span&gt;&lt;span style=&quot;color: #a6accd&quot;&gt; (&lt;/span&gt;&lt;span style=&quot;color: #a6accd&quot;&gt;randomNum&lt;/span&gt;&lt;span style=&quot;color: #a6accd&quot;&gt; &lt;/span&gt;&lt;span style=&quot;color: #89ddff&quot;&gt;!==&lt;/span&gt;&lt;span style=&quot;color: #a6accd&quot;&gt; &lt;/span&gt;&lt;span style=&quot;color: #f78c6c&quot;&gt;20&lt;/span&gt;&lt;span style=&quot;color: #a6accd&quot;&gt;) &lt;/span&gt;&lt;span style=&quot;color: #89ddff&quot;&gt;{&lt;/span&gt;&lt;/font&gt;&lt;/div&gt;&lt;div&gt;&lt;font size=&quot;3&quot;&gt;&lt;span style=&quot;color: #f07178&quot;&gt;&amp;nbsp; &lt;/span&gt;&lt;span style=&quot;color: #a6accd&quot;&gt;console&lt;/span&gt;&lt;span style=&quot;color: #89ddff&quot;&gt;.&lt;/span&gt;&lt;span style=&quot;color: #82aaff&quot;&gt;log&lt;/span&gt;&lt;span style=&quot;color: #f07178&quot;&gt;(&lt;/span&gt;&lt;span style=&quot;color: #89ddff&quot;&gt;&#39;&lt;/span&gt;&lt;span style=&quot;color: #c3e88d&quot;&gt;This number is NOT 20, so ??&lt;/span&gt;&lt;span style=&quot;color: #89ddff&quot;&gt;&#39;&lt;/span&gt;&lt;span style=&quot;color: #f07178&quot;&gt;)&lt;/span&gt;&lt;/font&gt;&lt;/div&gt;&lt;div&gt;&lt;span style=&quot;color: #89ddff&quot;&gt;&lt;font size=&quot;3&quot;&gt;}&lt;/font&gt;&lt;/span&gt;&lt;/div&gt;&lt;br&gt;&lt;/div&gt;" style="text;whiteSpace=wrap;html=1;fontSize=18;" vertex="1" parent="1">
          <mxGeometry x="60" y="1340" width="490" height="140" as="geometry" />
        </mxCell>
        <mxCell id="u8lJ1kp-jtEhvVkyOlgO-1" value="" style="shape=image;verticalLabelPosition=bottom;labelBackgroundColor=default;verticalAlign=top;aspect=fixed;imageAspect=0;image=https://miro.medium.com/v2/resize:fit:364/1*zs63xcX4MgXSqbWBpDW39A.png;" vertex="1" parent="1">
          <mxGeometry x="1190" y="90" width="509.3" height="258.85" as="geometry" />
        </mxCell>
        <mxCell id="u8lJ1kp-jtEhvVkyOlgO-2" value="" style="shape=image;verticalLabelPosition=bottom;labelBackgroundColor=default;verticalAlign=top;aspect=fixed;imageAspect=0;image=https://miro.medium.com/v2/resize:fit:357/1*8lATyP1rTIEAZd5j2i10rg.png;" vertex="1" parent="1">
          <mxGeometry x="650" y="88.85" width="466.43" height="260" as="geometry" />
        </mxCell>
        <mxCell id="u8lJ1kp-jtEhvVkyOlgO-3" value="" style="shape=image;verticalLabelPosition=bottom;labelBackgroundColor=default;verticalAlign=top;aspect=fixed;imageAspect=0;image=https://miro.medium.com/v2/resize:fit:384/1*a6jpAguA_SNh8rKEV12oUg.png;clipPath=inset(10% 0.67% 0.63% 4.67%);" vertex="1" parent="1">
          <mxGeometry x="50" y="90" width="523.61" height="263.65" as="geometry" />
        </mxCell>
      </root>
    </mxGraphModel>
  </diagram>
  <diagram id="oFpFo2Lp_Fd2NxPdb3Ie" name="Logical Operators">
    <mxGraphModel grid="1" page="1" gridSize="10" guides="1" tooltips="1" connect="1" arrows="1" fold="1" pageScale="1" pageWidth="4681" pageHeight="3300" math="0" shadow="0">
      <root>
        <mxCell id="0" />
        <mxCell id="1" parent="0" />
        <mxCell id="uNUsXlE5bA2COR8zjND2-1" value="" style="shape=image;verticalLabelPosition=bottom;labelBackgroundColor=default;verticalAlign=top;aspect=fixed;imageAspect=0;image=data:image/png,iVBORw0KGgoAAAANSUhEUgAAAhIAAAGYCAYAAAAX/gucAAAAAXNSR0IArs4c6QAAAARnQU1BAACxjwv8YQUAAAAJcEhZcwAADsMAAA7DAcdvqGQAACwiSURBVHhe7d0JfFTV2cfxJ4EQiOwGMCyRRVYXEEEWEQRFUcSlKlSlVhHrglWkiG3xVWtxt1VbK7VabK22Lq2tWgWxggKyLyKCAYwiEEAIS1giSSB557lzBiZhljuHSbiT+X39jHPOnUkIGebe/5w1pXfjcWUCAABgIdXcAwAAxIwgAQAArBEkAACANYIEAACwRpAAAADWCBIAAMAaQQIAAFgjSAAAAGsECQAAYI0gAQAArBEkAACANYIEAACwRpAAAADWCBIAAMAaQQIAAFgjSAAAAGsECQAAYI0gAQAArBEkAACANYIEAACwRpAAAADWCBIAAMAaQQIAAFgjSAAAAGsECQAAYI0gAQAArBEkAACANYIEAACwRpAAAADWCBIAAMAaQQIAAFgjSAAAAGsECQAAYI0gAQAArBEkAACANYIEAACwRpAAAADWCBIAAMAaQQIAAFgjSAAAAGsECQAAYI0gAQAArBEkAACANYIEAACwRpAAAADWCBIAAMAaQQIAAFgjSAAAAGsECQAAYI0gAQAArBEkAACANYIEAACwRpAAAADWCBIAAMAaQQIAAFgjSAAAAGsECQAAYI0gAQAArBEkAACANYIEAACwRpAAAADWCBIAAMAaQQIAAFgjSAAAAGsECQAAYI0gAQAArBEkAACANYIEAACwRpAAAADWCBIAAMAaQQIAAFgjSAAAAGsECcCDsts1MSUA8DaCBOABGhwGX3G6/PTBYfKHd26Tps0bmEcAwNtSejceV2bKAKqIBoeO3VpKp66+W7dWzn1G3XTzqMidVzwvCz9eY2oA4F0ECaCKaYtDxeBQ0V3DX5D5H+WYGgB4F10bQBUrKToQMUSoGjVSTAkAvI0gAVSxYl+QiCYllbcmgMTA2QqoYsVFJaYUXmoqLRLVxa3/N1QG/+B0ObF9U3MEqF4IEkAVKy4+aErh1ajBW7Mq6biV68edF7XLycbmDTvkwRdGymvz75EZ6x+W59+/XX72+A/kkh/1ks6nt5KaaTXMM4HExGBLoIr94unhzkUkkntv/Jt89J/PTA2VTYNE97PaOeWpbyyRf/zhY1n7xSanfrTadcmSV2aPN7XQ9M/6auUmWbMiT77yldf4brt3FppHAW8jSCAhNclqINs2F5haYtFPo1feeJaphXbfT16RD/+1zNRQ2YKDRMDKJevlb8/MkE/eW2GO2Ju29kFp0Pg4U3Mnb912Ey58IcMJF3myZcNO8yjgHbSfIiG0bJMpgy7tKrfce5H85rXRcul1vc0jiad4f/QxEnRtHHsnn5Etj758vXTr09Ycsbdi4TpTcq9F6+NlwNBT5aafXyCPvXKD/Puze80jgLdwtoInaXPwhSN6yNiHLnU+Lb700Vh5aMp18uO7zpW+gzubZyWmEhdjJFJSGGzpFQdKor9e0axYFHuQqGjx7K9MCfAWggQ85Z7fXCl//vBO+cuMu+S+566WEbf0d5qc6zaoY56R+NxM/6RFwjviESQ+t2iRqGj92q2mBHgLZyt4ymXX95Eu3bOr9Uj2kuLoQSKVBak848CBOLRI+IJEaenRDUf7liABjyJIIGmdeU4H+e+XDzjjLlq1zTRHK5+bMRKptEh4hpuuqGgOHii1GicRjCABr+JshaR01gVd5Jl/3SzHN63njLt4Y9EvZPK7Y+Tia86UtFo1zbMqB+tIJJZ4tEioow4SXxEk4E2crZB0Bg47TZ78+42mdli3vm1l4u9HyMd5j8rE342QHv3bm0fiS/faiIbBlt5xoKTUlI7O0QSJ7/cVMfUTnkWQQFI5/8ru8vBffmxqoeny1Bdfe6b8/t+3yOsLfy6j77nAPBIfxS7GSLBpl3ccjMNgS3U0MzfW0a0BDyNIIGlot8Wvnr/W1NzRrbxffOwDU4sPxkgklnh1bezM3ytf52wxtdisX7vNlADv4WyFpHD5DX2dbotYTHtjiTz1i/+YWvy4m7XBW9Mr4jHYMsC2e4OBlvAyzlao9kbcfLZMePIKU3Nn7odfyq9u/bupxZebCxNdG94Rj3UkAuyDxHemBHgPe23AU+Zt/40pRfbnx6e76nIYecdAGXP/xabmzheLv5WbLvidqZXXtHkDZ9XN+o0ypH7DDGf/BN1cac+uQtld8L2zaNCGr/PNs0PTQZ06QySS5x+aKn/57f9M7bCs7MaS1aqRqYks/TTXlBCJro6qXUq6GFiR715vxfsPOHXd1v2Unq2P2GsjoF+zu53pm/GQfVJTeX3BPabm3sizn5TcVZtNDfAWggQ8JZ5BYtT4wXLTL4aYmjvrc7fJyH5PlGs1OHvIydK930lOAOjUtaU5Gt7Cj9c4G27NnrZSCnbsM0cP0z0cXpx+p6mF9sIj0+Stv8yT1h2a+m7N5JQeJzoXOg0SwTav3yGzpq70/T4+8IWZ781RVHTnpEvlh7f2N7XY3HzRs05Q1N9vgS80uumaiuTdlfdL5gn1Tc2ds0+YENeWESCeCBLwlHgFCV1kSteHiMWu7fucELF96x6nPv7xHzgbhTXKrOvUY/Vd3i558Na/H9Fq0OG0FvLXmeNMLbTZvnBw0slZRwSHcPRnHv/DFyVn+UZzBMEuHH6G3Df5GlOzt//7Ytm98/tDwWK3tkSZ8hxfcHTTQvTQSz+WQZecZmrRaQvX8J6PmBrgPYyRQLWjG33FGiJ0+eLbhv3hUIhQ36z+zjpEqGYtGjpN6m06NjNH/NysI3H2hSe7DhFKF9Z6acZdUrd+bXMkvvTvoEuX646UlfVnVKZo3U1u1a5T61D3lrZQ9b/oFGc20NW3DTDPiG7Fwm9MyZ1v1zA+At5GkEC1opt+6UZfsdIQocEh2Mx3Ppf8LbtNzd6kKddJZrPDTdnxnAVQ0Z2+EBUP2o1y1yOXyauf3u20Ev197gRnM7V/LvmlfPjNQ07zvK6vod00VaGhL9BpmNGfq23nE5zfZyz7sWzZ6J3FnL5Y9K0pucOMDXgdQQLVQq30mk7TtW76FasJ106R5fOP/JS4Y9semT8jx9Tste10Qrmf62j72CPRT8eDrzjd1GKT3a6J3DzxQmcRLm1JGf6Ts52fPRTt479xwvnOWI/7fb/3E9s3NY/ER72GdZxuJX1NNchMXf0rJ8zoz/XqnLvl3VX3y+wtj8sTr46SC67q7gx+jUQDYWUGuFjoYF4d7OnWt1+xhgS8jSCBhKcXnfv/eK3TDx6rX495zRkUGc7/3vrMlI7Opdf1ljrHpTtlN9uIH40zB3QwJfd0euzLs34m1487zwkUsRji+71P/u8YJ3jEw5Wj+8nfZo2Xh6ZcF/U17TfkZHnA99q/Mnu8M0MnvXaaeeRIqz/3zviRWKaB0iIBryNIIKE1yWrgXEhiGbwW8My9b8v7ry0ytdAWzFwtX608PO1u7Yo8ef2Ps5zb9H8udWZouKGf4HXwpCqp5NH3PQfEtkeIjq3QBbsiXYSj0bEk2hUy9uHLzJHY6cwU3UjtZ49d7owviYX+O9BpvtpCcuGIHuZoeRtyvfPJ/nOCBKoRggQSVss2mXL/H6+RvoM7myPuvfSbD+W1ybNMLbJpbyyW9/6xSO74wfNy3Tm/lacnvu3c7r/5VbnziudlcJuJ8sTd/zLPDu+kk5s7924GWwbozA8NM1PfWCKvPvuxfPDmUmfdikiatWwk7U/x/1nRzNz4iKsprW7p4l8a7GKlrRpPvfkTZ2v3o6Fh7b7nrg65AFk8x0lo18Su/L2y6dsdTtCMdaGpL1zuu6Hda6GmEANewvRPeEos0z97n9vJarDfv/78qTw54S1Ti65xk3rOCT0a7b8Pt6iReuHRD2TKE9OdTcE+3fakORre9QOfCtkcr4MOdQBnuPEL6sHb/iFTX19saqH97q2bpadFN4gbupiWLqrlhg7a1PEW8bZ41lr56eV/NDV/99LPn7rK1Nwbc8lz8v2+Ytm3t8jZhVNvhb566UH7Rap05osOWo1m2ae5cpvvzwe8jBYJJKQBQ0+1ChEfvrUsphCh3IQIN8pK/Zldp5q6WVxo7cpNplSezi557sH3TC00XcgqktvuG1ppIULpWIuzLuhiauHpipL63Mqg28Df+n9DTc3fIqEBNNQt0voPx9WrLV9+tkHWf7VVtm0ukL279x9ViFD6PdyM2aBbA4mAIIGEFBhvEKtGTeqZUtUrLT188XEzc6NmzfBvz08/WOV0eYQTaRbFsJG95Ed3DjK18LQbRRfU+lH/J6XP8T9zbrrKoy6W5Yab7dc1RNSI8PcMpt0J2o2Qt267ORLddWMHHfo5FsxY7SxiFuoWKRhk1PMPko03N90h3/rCC+B1BAkklR5nn2RKVa+s7HAvopuZG9HWSQgeBFqRLqsdinaL6BTPaPRT+gO3vOqMzQj+cz5f8I1MGDnFGTMSjY69uOzHvU3tSD8Y1VfOOt/d+Bb9ea7s/rATaq4842G5qscj8tBPX5c1n+eZZ4Sn3San9WpjaqFpK1E42iJRGVa4WE+CFgkkAoIEko42p8eLXpj1E/64Ry83R8ILvli52gE0yid1vaiHE65FQpcO11UwI3l8/L+cT+mRTLr9NXnldzNNLbxLfxx6XQ+9OF91Uz9Ti0zHKOjPk//d4cXBNn6TL//9+0IZf82fXc2cifZnRWqRqLQg4aJFYj1rSCABECSQdM4Zeoop2WmYWVeuuPEsZ3ClLpL0y2eGOxeqSAMtVWCMhHKzIFHNmpFbJKLNQqi4HoQub61LOkeim5a976K1Qb398nxTCk9bJXTBqIr09xWu1STYiF6PRRy/oGMWdObM2i9CjycJOO/ybhFn9xyLFgndcE1nfYSj/0Zi6cYBjhWCBJLOORfHvuaESqtVQ669/Rxnwy3d0CtacKiofItE9K6NaC0SBTsiTwNt1S7TlPx0/45opr622PWqi9oqMO9/0Vf+7HPukRfwwT+Ivvrmmy/McQY4uhFtPRClu7iGE3GMRN3KGSOhIrVKfLuGbg0kBoIEkk6LNsdHXVK5Ig0NL3xwh9z+q2HOpk02ygWJOIyR2B1lfYFWFVokzr4wekuMDkiMxYx3lptSeH3O62RKfrpPhu6XEY3upunW1NeXyNZNBaYWWr8IQao0aPxKRcdV0mBLtSLCehIMtESiIEggKfUa2NGUotMQod0YHU87uoWbgrs2iuMwRuL7wuKIgzZbtS0fJLJPir70dd63sTWl//fVhaYUnoa24Nabjt2i/x61tcPtqqFKF21auSTy4EUNMOFakUoPVn3XhooYJBhoiQRBkEC18sIj0+TrnC2mFt45F59qSpHpPh4aIuLhYFDzeXEcxkioSKseBgcHXQApeAfSUHS9jGirZoaiayJEE9wC1LlbK1MKT6eexuq7jbtMKbw2YRbxOhZjJJTOOtlb8L2plUeQQKIgSKDa0EWapjz5oSxy8UlWF7Ry49GXbzClo1du+mccxkioSOMkWrU9PEYi+6Tou3NuXm+3hPS+3aEvhMGCg4QubV4ZNrloTdFZNqEci1kbAeH23WDXTyQKggSqBd2A62/PzHDKiz6JHiT0Ih2tq+KOX18ScUCl7pcwcdTLhxZr0hATSbzHSKiCneFbJHTPjYADB6J3pWirhY1YWyRaBgWceNLukGjCtUgEdztVVJmDLdUXYdaT+HbNd6YEeBtBAglPl7wO3oBryexcZz+EaM4cGH6JaN3H4+rbBpjakf7z1/ly05Dfy4y3Dw82jLQSpYp1jIS7ro3IXRGBloiC7dE3fsrKbmxKsXETJIIFt5TEU936dUwpdsHdThVVdovEioVHrgeS9832St9uHogXggQS2sN3vuFswhVs//fFsuiTtaYWXqRxEhf9MPRW1EoHGD427k1TO6xGjchvp+AWiQPx6trYvteUQgs05UcLHKpWek1nrYlYRVqOO8Bm7EWssrIPt8DEKrjbqaLKnLWhQnVtMGMDiYQggYSlSzi/+8oCUyvPzYj/Lt2zncWlKtJBiZHWOfjgn6EHAkbriijfIhGvro3IF+jARV7DlX7KjSbSjqKh6IJTDY8/ztTCCw4SG76O3gXhZoZJRVnZsYeggEgtEnWOq9wgoS0PXywu373BQEskEoIEEpLuvRBpZP/SOV+ZUmTdeh+5B8Nl14de1lmtXZHnbE8dSrQWhPItEi6mf0Zp4VDRuhWCF6Va+HH0NSKuGXOOKbnTtU9bU4osOEhsdBEkTnQxOLSiFq2jd818uWyDKZUXaYyEquwwUXFhKrcLcQFeQJBAtaRbbetFP5pQW2k3aBx+sapIyzVHG9NQFrT7Z7xaJPbtiRwkgpfJXrU09EU0WLe+bWXEzWebWmR1MmrJJSN7mVp4u/L3lvu9uRkUmd2+SUxjNkbc0t/Vtuifzw+9P8nBCOtIqMru3qgYJNbRIoEEQpBAteWme+OcYUeOk2jQOHxT/az3vzClI0VtkQjqh3cza8PNGIlYgoS2SERadyLg6jHnOF0W0Qz3BQ43K1TOfPdzU/L7bG74MBZQu04tZ9dOt0a7fO6qZetNqbxI0z9V5Q+4LB8kWB4biYQggWorUutBQOMm9aTz6eUXSIoUJCJ9z1i6NkpK4jNrY1+Uro3gMSC6hLQuJR1NsxYN5aUZd8nlN/Q1R4506XW9nZ1E3Vg292tT8stxsfW3Gnp1T+cWzeh7LpC6DaLP2NC9O/K3HN5BNFikJbJVZU8B1Z1NA90Zu7bvk535kQfRAl5CkEC1tXLJ+rCrBgbrVqGf302XQijRuzbi3yJR6GKaa/ACUG42twqY8OQVct9zVzvjJi6+9kxn06vBV5wuD74wUn7+1FXmWZHpVucfvrXM1Pz0NXGzhba699kfyqBLu5paeaf1aiMvf/IzVy0XOkbjjednm9qRorVINMkKv7+KhjXdDTbSmiNuBGZvMNASiYYggWpLm/HddG+46VsPiNRvH0uLRLzGSBTujR4kgldz1O22n39oqqlFd+GIHvLTB4fJxN+NkMdfHSUP/mmkq507A7QVIJTXJn9iStE9NOU6J9TohVov2GMfvkye8P0sz79/u7Q/pbl5VmRv/Gl2xLEZ0QZbPvDHa5yWD20h6TWoowwb2csJMLp8+r+W/NLZDfZoBcIVQQKJhiCBas1N94buTnl803qmFlmkT52xTP8sidOsje/dBIlO5ZeF/stv/yeffrDK1CqPjif5378/M7XyZrzzubz98nxTi067WfSirRdsHQzaL8KW4BXpjqY6yyeSSNM/lc7a0OCgLSRPv/kT+eUzw51gof8e4tXtEQgSzNhAoiFIoFpbWWF+fjjB0xi/WrnJlI6kn4jDida1UW6MRBW2SLTueOSAyGcf+K/kLN9oavG3feseeWTsG6YWmgYaNzM4joYORnXTAhNp98+qojONdGwEMzaQaAgSqNb0Yhlu7YBgweMkvlq52ZSOpAMz9ZNoKPFukaiMro2AdWu+k/E/fNH5tF4Z7rrqT86gwUi2bNgpj9wZOWwcLV359MvPor/+wSHvWNJWifUECSQYggSqPTfdGz36tzcl/wDBSLSJ+7ev3+T0l7frkuXM8tCxEzWiXPjLTf90s0S2m66NwmLnFknwFNBg2mowYeQUZ8nveNEFsq7s8bAzFsMNfW3GXPKcqcWXbqgWvBdKJKVBa3wcSzrg0s3Kn4CXECRQ7bnp3tBP7af0ONEp62C3iksWV6TjKrS//JXZ42Xa2gflrWUTpcfZJ5lHQyu3IJWr3T/dvT2jrSURqQ9ff46H7nhdJlw7JWqAimbW1C/kiu4PuVqKO5iGiWv6Ph63Taq0BeqekS+5DhEq2qyNquJ2NgvgJQQJVHsaCnR1xWiCx0lURpN/zEtku1hHQhVGCRKq+YmRV4mcPW2l3HzRs3LfTa84gSAWi2d/JQ/e9g/n4m27OZeOD7h+4G9ddUNEouMubr34DzH/Hfbtid5FVBWONswBxwJBAtXets0FsrTCokihBO+78eJjH7jqEolFzNM/XawjoQr3Re7aUKHGSYSiaz5oIBh13tPy1C/+I9PeWBJyOuJn876Wvz71kYy96k/y08smy9TXF5tH7GmYGHXu03L/za/GFOS0BUQDxLX9nnAGVhbtLzGPuJdzlAEGSGYpvRuP88YoI8Bn3vbfmFJkOp1PL/Zu6aJKuh5CJDrW4Ie9HnVWgAzQaX66ZkA83HnF84fWtTij30nS85wOztbdekuvneYv++7T0mpImq+8fP43MuWJyNMWlU6LjGbuh1/Kq7+faWqJoXWHZnLyGdnOLq2tKwQh3fhrw9fbnKWk9XdqEx6C6Y6v766639Ts6FiPeIdPIBEQJOAplRUkdBVEXcAoGm3ar7gS45j7L5aRdww0NXs/vfyPYXcOxbGni1zFsj5FRUPa3+dqL5NgGnCH/6SfqZV3WddJpgR4W42Wdfo8YMrAMRduamVFy3yf/GL59Kd7GfQZ3FmanBB+qWO1Y9se59N7sEWfrJG3/zrf+fM25PpH1G/esDPm27I5ubJ5/Q7n6+E9utx4/4tOcTXttqIvFq0Lu4pnJBN/P0JatMmUuvXrHHHTqcsbcreZZwLeRYsEPKWyWiTUzx67XK4cHfrTX0Duqs0y8uwnTQ3J5pSerWXco5dJ527lN3KLZM60lfLYuH86YTUWA4aeKo++fL2pHUn3Rfn1mNdMDfAuggQ8RadVZtSt7UxZdG7HpUud42pJHV+5Tobv3lfP8NV1Q65Yg8SQ4We4Gu/wp4enOuMTkLzOu7yb799LDznp5CxnN9RQtMXg7b/Ok//81f1S38F+89po6Tu4s6kd6ft9RXJe64meWSwLCIcgAQAR1G+UIa3aZoquJ6ZrduhqooF7WxpQ/jZrvKmFd++Nf5OP/hN6vxLAK5j+CQAR6NoY2gK2aul6ZyqsTic+mhChLvlRb1OKbNAlp5kS4F0ECQCoYt/l7TKlyAb6gkS8dhcFKgtBAgCqmK7pccOgpyKOxfl0+pe+5zx91K0fQGVjjAQAHEM3/WKIjBo/2NTE2Vr9hUc/kOn/XGqOAN5GkACAY6z7We1k7MOXyeypXzghAkgkBAkAAGCNMRIAAMAaQQIAAFgjSAAAAGsECQAAYI0gAQAArBEkAACANYIEAACwRpAAAADWCBIAAMAaQQIAAFgjSAAAAGsECQAAYI0gAQAArBEkAACANYIEAACwRpAAAADWCBIAAMAaQQIAAFgjSAAAAGsECQAAYI0gAQAArBEkAACANYIEAACwRpAAAADWCBIAAMAaQQIAAFgjSAAAAGsECQAAYI0gAQAArBEkAACANYIEAACwltK78bgyU4Znlfn+C+DlAlBdpRzxf3gfQcLT/AGiU9eWMmr8YOk1qJOk107zPwQA1UzR/hJZMCNHpjz5oeQs30igSBAECc8KhIgW8vz7dxAgACQNDRQ3X/Q7X5jII0wkAMZIeJQ/3ZXKqPHnEyIAJBU95+m5T8+BfNL1PoKEJ+lbp0zKysqc7gwASDZ67tNzYOB8CO8iSHiQ/y3jf/PQGgEgGfnPff7zIDHC2wgSHqVBnLcPgGSm50CnUQKeRpDwJH8KBwBwPvQ6goSn8eYBkMw4ByYCggQAALBGkAAAANYIEgAAwBpBAgAAWCNIAAAAawQJAABgjSABAACsESQAAIA1thH3oDLd8a5Md707KAt3PGuO2issLJTNmzfL7t27pbS01BwFgPhKTU2V+vXrS1ZWlmRkZJij9s5sfLukSA1JSUn13fO516t4Zao5DRGrV6+WXbt2ESIAVCo9x+i5Rs85eu5BcqBFwoPi2SKRm5vrvLGPP/54admypdSsWdM8AgDxdeDAAdm4caNs375dGjZsKO3atTOP2KFFIjHwylRz2p2hCBEAKpueY/RcowLnHlR/BIlqLtCdQYgAUBUC5xq6UpMHQQIAAFgjSAAAAGsECQAAYI0gAQAArBEkAACANYIEAACwRpAAAADWCBIAAMAaQQIAAFgjSAAAAGsECQAAYI0gASBhle5cL6tW5sjmfeYAgCpHkACOpZJCKdiyTnJW5/hu62Tz3iJJjK2OSqVob4EU7D7yVlhinhJM/54VHy8tkr3OsUIJ9SWlRXvN1+yVIvNLKSkM/h758tmi5ZL79VpZvDhHipxnAKhqKb0bjyszZXhEme8kXVbmu8lBWbjjWXPUzpIlS5z7M844w7mHR5TulLULFsma/BDBIa2BtDi5h3RvlWEOeFG+LJ0+T/LCXL1Ta2dKu9N7SKfMNP+BtXPk3ZydTrFRp2HSr72vsG2pTJ+f5wSA9Ja95LzTm5b7ZJO/bLrM2+g8Ki16ny/dm+i3eVf02/i/R4GsmjlLcvf6/rymXWVor2z/F+KYi9d558zGt0uK1JCUlFTfPZ97vYpXBqhqpVtl6UdzJOdQiEiV1LQ0SQvs9F5SIHmfzZQ5awvNgcRTuj9f1s6bKcu3mQNRFG1cJHNj/vs2kC4DzpeBA86V8wkRwDFDkACqVKmsW7hI8vb7a2lNukj/IUNl6JAhMuTCoXJ+92yp6wSKUtmZM09W7BLZuWaxzJs3z3dbIXkVmy+25cgC57Hlsr5YpCD38HM3m6c4Nq0wxxdL7m7/oUPPXZIrBXs2y6ols2Tm9Gny0ScLZGlufsjuhpDSW0ifYcNkmHMbKgNPzhR/O0SRrF+99sgWl5D07ztHln7n7tl+BZK7bKmsWLlcFn9R7m8LoAoRJICqtD9HvtlmLpb12kn/3u2kgWn917djeouuMuC0LHMhLpS8tXnSqGmaFObnS37+OsldE9yX4AslX+XKVn2sOF2a1RIp2b3D9zx9boHsNc9y7Cswx3dIgfkWh567JUfmfOwLGJt8X1NUIoW7t0reqnkyc9lWlyEgWKrUbdtFWhxnqoV7ZIcpRlckeUvnytoIAydTU0zBUSIF2/Xv5LvtKve3BVCFCBJAVdq049AFvkHzThJqFERqi2xpmu4vl+zyXSQbdpIW9f31grwc3+dwY/8aWZ+vl/pUyczuIOZLYldaKqUp6dKoZTtp3zpT0s3FumhjjqwxLSexKZKSA6boUt1GjfwnowM7JWfuUtkaJsG0bN9F2nfoIh1amQMAjjmCBFCVDpp7n9SUcG+/oONl+gXp0iE703+0cLOs3aQFX6hYnecPFbWaSes2R/NWTpOs08+Tfqd3kU6n9pEBbeua43tk5xZTjKhUCs2MjIL8PFn16dJDgzDTjs+STH8xorRmfaVnSxOF9ufJorlrJdSIifSm7aRTx3bStLY5AOCYI0gAVSmtxqE3XUlJcDdFsCJtJPCrmeZ0c6S2ae10XWhz/nffrvNdun2BYov/UptxQnvJckq26kqDFodPBelNGpjWjVI56GagRNFmWf7JLJmlt3lLJXeH+aLaWXLqyW5/slRpeno/6dTI/3OU7syRFVtcj9IAcAwRJICqlJ0pDUxx78aVIZvwC9fkynfmGpreKMs8P0van+DvCCnNXy85a9bJd8VaayAtOga+Y3gFReFCS5xp8EmvK5nZXWXguT2kRUwtBxnSvm/PQ19TeiD2ERoAqh5BAqhKqe2lUyvThF+UJwtmLpDcLf4FmUqLdkreCt+n+tUF/kGONRtJu86HOwYadMwW/wf2Asldne88JzUzWzoEXazT0mqY0k75ZmmeFJWWStHWVbJ8QyVOJQ2etXHhEBly/kDp0zVb6tqcXVKbSveerUOOHQHgTQQJoIpldusnnRqbqRqFW2XVoo9k2rvvynvT58jSdQX+aZcpGZLdva+0C/5EX7u9tDvh0BQPnzRpdmLrcm/iBm2yJDDCoShvqUx/7z2ZviBXCmIc/HhMNTxV+nQygy8BeB7vVaDKZUj7s86VPh2aSt3gXOBIlfRG2dJ1wEDp2uzIt2dWu6zDn9aPayHtm5tywHFdpF/P7KAppT5pdaVF26b2szqOgYz2QYMvAXgaS2R7EEtkJxndh+L7El+GqC316qaHSPdFUrgvTTKOS5XSHctl5qfrpdD3rMxTLpQ+kWZr+L7v3tLaUjedzwuoWiyRnVx4ZYBjLS1DGtRvIA1ChgifbStlzoz35L1p02TqXA0RPrVbSvtoUz5935cQAaCycZYBPC5/y07RORelJSVSqu2H6U3l1L5dXa3PAACVjSABeFzmqefKsCHnSv8B/aX/wPNl6Pm9pHVgCWoAOMYIEkAiiNb9AQDHCOckAABgjSABAACsESQAAIA1ggQAALBGkAAAANYIEgAAwBpBAgAAWCNIAAAAawQJAABgjSABAACsESSqudRU/0t84MAB5x4AKlPgXBM496D645Wu5urXr+/cb9y4kTABoFLpOUbPNSpw7kH1l9K78TjdmBgeUialUlbmu8lBWbjjWXPUTmFhoaxevVpKS0vNEQCoXNoa0bFjR8nIyDBH7JzZ+HZJkRqSkpLqu+dzr1fxylRz+kbWN3TDhg1pagRQqfQco+eaeIQIJA5aJDwoni0SAJCoaJFIDLwyAADAGkECAABYI0gAAABrBAkAAGCNIAEAAKwRJAAAgDWCBAAAsEaQAAAA1ggSAADAGitbelC8V7b88ssv5cUXX5T58+dLUVGROQoA8ZWeni69e/eW0aNHS+fOnc1Re6xsmRh4Zao5DRH6pv7kk08IEQAqlZ5j9Fyj5xw99yA5ECSqOW2JIEAAqEp6ztFzD5IDQaKa0+4MAKhqnHuSB0GimqM1AsCxwLkneRAkAACANYIEAACwRpAAAADWCBIAAMAaQQIAAFgjSAAAAGsECQAAYI0gAQAArBEkAACANYIEgMhaDZexjz4uk0afZQ4AwGEECSCZdTlLhtwwQSY9OMl3myCjzuspzc1DASMn3iojzxskQ265Ryb1MgcBwCBIAMmo1XCZ9PpMWfzyMzJpzHAZctEQ32243PboZHln7jsyedyQQ4Eif0+xv1C8R/IX+IsAEECQAJJNq5Ey+aUJMqRdPXPAlxEKi6XY5AWp1Vx6XnOfPHH3aU512t03yK0/v1fuHH2tPO0cAYDDCBJAUmkuYx+7TXo29Nf25E6Tx6/rIX3795W+fXvIJRNfkc+3F8v2Wc/J3U987jxnyMRJMuGmG2Xs/Y/LKP8R+b8X35Q3X39Tpky8VIbc8rhM+ecH8s5vhzuPAkguBAkgmfQaK4M61PKXN82Qe0fcK2+s8lfVpg+ellEX9JULxr0im8yxzFZtpE07/62F/4g0N/XTht4jk0YPktNaHy/1Msz3BZBUCBJAMjmvzaGxD5s+e1o+NWVrtXzh4eAe2ZT7jXyzId8cBJBMCBJAMqlh7n2KDgTaHIKMeEbemTVX5vpur/7cHIvk4CaZdvdAuWTEVTLqoWnmIIBkQpAAksnewIhKkfSMnqYUpEYtp4uilt7c9FRsWCT3zjJlAEmJIAEkkzdz5BtTbN5rlIxsZSoAYIkgASSTDb+Wtxfs8Zfr9ZSxL78pk244SzpqvVVPufSkTEl3HgQAdwgSQJJ5Zcy98nau6eKo10aGjHlGXl28WBb/e7L83yVt5FCPxuFeEAAIiyABJJ1P5dcjbpDH318t2wvNoSB7tq6WGS/eK3c+ag4AQAQpvRuPKzNleESZlEpZme8mB2XhjmfNUTs9evQwJSC05j0GyWlNa4kUb5fP/7fo0PoRwNFavHixKdk5s/HtkiI1JCUl1XfP516v4pUBktymxTNk2vvTZBohAoAFggQAALBGkAAAANYIEgAAwBpBAgAAWCNIAAAAawQJAABgjSABAACsESQAAIA1ggQAALBGkAAAANYIEgAAwBpBAgAAWCNIVHMHDhwwJQCoOpx7kgdBoporLi42JQCoOpx7kgdBopo7ePCgFBYW8ukAQJXQc42ec/Tcg+SQ0rvxuDJThkeUSamUlfluclAW7njWHLVz6qmn8skAQJWrVauWrFixwtTsnNn4dkmRGpKSkuq753OvV/HKVHNnnHGGKQFA1eHckzwIEtXcrbfeKrVr1zY1AKh8es7Rcw+SA0GimuvVq5dMnjxZ+vTpQ6AAUKn0HKPnGj3n6LkHyYExEh4UzzESAJCoGCORGHhlAACANYIEAACwRpAAAADWCBIAAMAaQQIAAFgjSAAAAGsECQAAYI0gAQAArBEkAACANYIEAACwRpAAAADWCBIeV7S/xJQAIHlw7kscBAlPS5H5M1aZMgAkD/+5L8VfgacRJDxJ3zz+N9CLT0wlmQNIKnrO03Of3+HzIbyJIOFRKb73TYrvv5zlG2T0hU/Kx+9/RqAAUK3pOU7PdXrO03OfngP1XAhvS+ndeFyZKcMzyvz/lZX6/m9upqyPBfDCAUh05XOCRodUX3jw3fT+UJlWCS8jSHiUBglxAoSWDocI58XyHQOAaiXFHxcOhQknROiRQJCAVxEkPMuEBhMm/PXAS8VLBqC6ORwjnP8fChH+o/AugoSnBaKDCRJOhZcLQHWlAcJ/75S1SIjwPIJEQjjcFkGQAFB9BUcHAkSiIEgAAABrTP8EAADWCBIAAMAaQQIAAFgjSAAAAGsECQAAYI0gAQAArBEkAACANYIEAACwRpAAAADWCBIAAMAaQQIAAFgjSAAAAGsECQAAYI0gAQAArBEkAACANYIEAACwRpAAAADWCBIAAMAaQQIAAFgjSAAAAGsECQAAYI0gAQAArBEkAACANYIEAACwRpAAAADWCBIAAMAaQQIAAFgjSAAAAGsECQAAYI0gAQAArBEkAACANYIEAACwRpAAAADWCBIAAMAaQQIAAFgjSAAAAGsECQAAYI0gAQAArBEkAACANYIEAACwRpAAAADWCBIAAMAaQQIAAFgjSAAAAGsECQAAYI0gAQAArBEkAACANYIEAACwRpAAAADWCBIAAMAaQQIAAFgjSAAAAGsECQAAYI0gAQAArBEkAACANYIEAACwRpAAAADWCBIAAMAaQQIAAFgjSAAAAGsECQAAYI0gAQAArBEkAACANYIEAACwRpAAAADWCBIAAMAaQQIAAFgjSAAAAGsECQAAYI0gAQAArBEkAACANYIEAACwRpAAAADWCBIAAMAaQQIAAFgjSAAAAGsECQAAYI0gAQAArBEkAACANYIEAACwRpAAAADWCBIAAMAaQQIAAFgjSAAAAGsECQAAYI0gAQAArBEkAACANYIEAACwRpAAAACWRP4ffTS2+tm8D+YAAAAASUVORK5CYII=;" vertex="1" parent="1">
          <mxGeometry x="570" y="430" width="623.53" height="480" as="geometry" />
        </mxCell>
      </root>
    </mxGraphModel>
  </diagram>
  <diagram id="HTGf7qCsG2WHQfV7vO9r" name="Coding Exercise 27: logical operators">
    <mxGraphModel grid="1" page="1" gridSize="10" guides="1" tooltips="1" connect="1" arrows="1" fold="1" pageScale="1" pageWidth="4681" pageHeight="3300" math="0" shadow="0">
      <root>
        <mxCell id="0" />
        <mxCell id="1" parent="0" />
        <UserObject label="&lt;b&gt;&lt;font style=&quot;font-size: 24px;&quot;&gt;https://codepen.io/makdag5/pen/NWMjMEV&lt;/font&gt;&lt;/b&gt;" link="https://codepen.io/makdag5/pen/NWMjMEV" id="aUIxcC-EcYgOUhTvM_ff-1">
          <mxCell style="text;whiteSpace=wrap;html=1;" vertex="1" parent="1">
            <mxGeometry x="780" y="390" width="270" height="40" as="geometry" />
          </mxCell>
        </UserObject>
      </root>
    </mxGraphModel>
  </diagram>
</mxfile>
